<svg width="37" height="37" viewBox="0 0 37 37" fill="none" xmlns="http://www.w3.org/2000/svg"><path d="M31.971 22.109C31.3251 22.5176 30.565 22.5685 29.9885 22.2432C29.2546 21.8269 28.8507 20.8587 28.8507 19.5082V15.4722C28.8507 13.5235 28.0799 12.136 26.791 11.7614C24.608 11.1247 22.9646 13.7964 22.348 14.8015L18.4969 21.0453V13.414C18.4537 11.6565 17.8833 10.6067 16.801 10.2891C16.0826 10.081 15.0112 10.1642 13.969 11.7583L5.34029 25.6133C4.18516 23.4203 3.58292 20.9785 3.58587 18.5C3.58587 10.1534 10.2752 3.36392 18.4969 3.36392C26.717 3.36392 33.4048 10.1534 33.4048 18.5C33.4109 18.5278 33.4079 18.5524 33.4094 18.5817C33.4865 20.1989 32.9623 21.4847 31.971 22.1121V22.109ZM36.7194 18.5015L36.7178 18.4167C36.6716 8.25254 28.5162 0 18.4953 0C8.44828 0 0.272827 8.29879 0.272827 18.5C0.272827 28.6997 8.44828 37 18.4953 37C23.1065 37 27.5079 35.2471 30.8857 32.0667C31.5563 31.4346 31.5949 30.3708 30.9736 29.691C30.827 29.5292 30.6496 29.3984 30.4519 29.3061C30.2541 29.2138 30.0399 29.1619 29.8218 29.1534C29.6037 29.1449 29.3861 29.1801 29.1818 29.2568C28.9774 29.3334 28.7905 29.4501 28.6318 29.6C25.8941 32.1921 22.2671 33.6365 18.4969 33.6361C14.0939 33.6361 10.1333 31.689 7.40149 28.5979L15.1838 16.1027V21.8639C15.1838 24.6297 16.2568 25.5238 17.1572 25.7859C18.0575 26.048 19.4327 25.8692 20.8772 23.5228C22.4158 21.0345 23.9991 18.4399 25.5377 15.9994V19.5082C25.5377 22.0952 26.5737 24.1641 28.379 25.1816C30.007 26.102 32.0543 26.0187 33.7208 24.9657C35.7435 23.6892 36.8319 21.3367 36.7178 18.5015H36.7194Z" fill="#0066F5"/></svg>
