<svg id="Layer_1" data-name="Layer 1" xmlns="http://www.w3.org/2000/svg" viewBox="0 0 704.3 703"><defs><style>.cls-1{fill:#21325b;}.cls-2{fill:#979695;}</style></defs><title>etherscan-logo-freelogovectors.net</title><g id="circle"><g id="Group_3" data-name="Group 3"><path id="Path_1" data-name="Path 1" class="cls-1" d="M169.28,357.68a29.84,29.84,0,0,1,29.85-29.84h.13L249,328a29.89,29.89,0,0,1,29.89,29.89h0v188c5.6-1.66,12.76-3.43,20.65-5.28a24.91,24.91,0,0,0,19.19-24.24V283.19a29.89,29.89,0,0,1,29.89-29.89h49.86a29.88,29.88,0,0,1,29.88,29.88V499.59s12.48-5,24.62-10.18a25,25,0,0,0,15.23-23v-258a29.88,29.88,0,0,1,29.88-29.88h49.81a29.88,29.88,0,0,1,29.85,29.88V420.91C620.9,389.62,664.67,352,699.39,306.72A50.13,50.13,0,0,0,707,259.89C643.24,76.37,442.76-20.69,259.24,43.1S-21.34,307.37,42.45,490.89A351,351,0,0,0,69.68,550.6a44.51,44.51,0,0,0,42.45,22c9.42-.83,21.15-2,35.1-3.64a24.89,24.89,0,0,0,22-24.7V357.68" transform="translate(-22.85 -23.5)"/><path id="Path_2" data-name="Path 2" class="cls-2" d="M168.22,659.14c157.16,114.33,377.26,79.61,491.59-77.55A351.91,351.91,0,0,0,727.15,374.5c0-8.12-.38-16.12-.92-24.09-128.58,191.78-366,281.43-558,308.73" transform="translate(-22.85 -23.5)"/></g></g></svg>